<svg width="512" height="512" viewBox="0 0 512 512" fill="none" xmlns="http://www.w3.org/2000/svg">
<g clip-path="url(#clip0)">
<path d="M283.65 254.194C280.388 250.931 275.089 250.242 271.031 252.954C265.952 256.272 264.928 263.752 269.51 268.334C273.435 272.259 279.765 272.22 283.65 268.334C287.57 264.415 287.531 258.075 283.65 254.194V254.194Z" fill="#DBC2F3"/>
<path d="M406.889 156.232H270.001L230.288 95.057C230.287 95.056 230.286 95.054 230.285 95.052L219.373 78.2437C212.327 67.3884 199.487 61.5023 186.664 63.2433L170.669 65.4164C165.824 66.0744 160.97 63.8494 158.306 59.7473L128.038 13.1193C119.385 -0.210012 101.5 -4.01409 88.169 4.63909C74.8397 13.2923 71.0356 31.1777 79.6888 44.5069L109.958 91.134C112.622 95.237 112.68 100.575 110.104 104.734L101.608 118.46C89.298 138.348 103.092 155.959 103.196 156.289C85.3409 157.286 71.1196 172.124 71.1196 190.224V394.067C71.1196 412.811 86.368 428.059 105.111 428.059H225.782L218.237 455.145H199.404C185.08 455.145 173.426 466.799 173.426 481.123V492H150.636C145.113 492 140.636 496.477 140.636 502C140.636 507.523 145.113 512 150.636 512H361.366C366.888 512 371.366 507.523 371.366 502C371.366 496.477 366.888 492 361.366 492H338.576V481.123C338.576 466.799 326.923 455.145 312.598 455.145H293.762L286.218 428.059C416.684 428.042 407.748 428.167 410.66 427.844C427.483 425.993 440.881 411.685 440.881 394.067C440.881 383.601 440.881 200.202 440.881 190.224C440.88 171.481 425.631 156.232 406.889 156.232V156.232ZM406.889 176.233C414.603 176.233 420.879 182.509 420.879 190.224V360.308H402.481L282.984 176.233H406.889ZM406.889 408.058C345.278 408.058 166.864 408.058 105.112 408.058C97.3982 408.058 91.1211 401.782 91.1211 394.066V380.308H420.878C420.449 389.143 424.332 408.058 406.889 408.058V408.058ZM254.469 169.037C255.871 171.196 255.218 174.058 253.11 175.427C201.371 209.013 214.054 200.78 177.034 224.813C174.88 226.211 172.006 225.551 170.646 223.456L135.13 168.747L150.693 158.643L168.101 185.458C171.109 190.091 177.303 191.408 181.934 188.401C186.566 185.394 187.884 179.201 184.877 174.568L167.47 147.753L185.639 135.958L203.99 164.226C206.999 168.859 213.193 170.176 217.824 167.169C222.456 164.162 223.774 157.968 220.767 153.335L202.415 125.067L218.957 114.328L254.469 169.037ZM352.8 360.308L305.016 286.7C302.008 282.068 295.815 280.748 291.182 283.757C286.55 286.764 285.233 292.957 288.24 297.59L328.955 360.309H306.152L216.881 222.793L232.923 212.379L248.867 236.939C251.874 241.57 258.066 242.89 262.701 239.882C267.333 236.875 268.65 230.682 265.643 226.049L249.698 201.488C263.457 192.41 264.788 192.046 267.638 189.325L378.635 360.308H352.8ZM183.812 243.74C186.679 242.57 199.99 233.758 200.091 233.69L282.288 360.308H259.485L183.812 243.74ZM96.4652 33.6157C93.8171 29.5356 94.9811 24.0625 99.0602 21.4135C103.131 18.7704 108.609 19.9214 111.262 24.0095L141.532 70.6375C148.39 81.2007 160.885 86.9309 173.363 85.2348L189.358 83.0618C194.549 82.3528 199.746 84.7398 202.597 89.1329L208.065 97.5531C198.836 103.544 132.926 146.331 124.24 151.97L118.773 143.549C115.921 139.156 115.859 133.439 118.616 128.985L127.112 115.259C133.74 104.551 133.592 90.8059 126.735 80.2427L96.4652 33.6157ZM105.112 176.233H116.144C130.526 198.388 222.162 339.546 235.64 360.309H91.1211V190.223C91.1211 182.509 97.3982 176.233 105.112 176.233V176.233ZM318.575 481.123V492H193.426V481.123C193.426 477.827 196.108 475.145 199.404 475.145H312.598C315.894 475.145 318.575 477.827 318.575 481.123ZM273.001 455.145H239L246.545 428.059H265.456L273.001 455.145Z" fill="#DBC2F3"/>
</g>
<defs>
<clipPath id="clip0">
<rect width="512" height="512" fill="white"/>
</clipPath>
</defs>
</svg>
