<svg width="512" height="512" viewBox="0 0 512 512" fill="none" xmlns="http://www.w3.org/2000/svg">
<g clip-path="url(#clip0)">
<path d="M473.028 25.129C10.075 25.201 38.747 24.948 34.993 25.33C16.02 27.263 1.029 42.862 0.051 62.098C0.017 62.761 0 63.429 0 64.1V125.116V447.916C0 469.405 17.482 486.888 38.972 486.888H473.029C494.518 486.888 512.001 469.405 512.001 447.916C512.001 429.393 512.001 82.548 512.001 64.101C512 42.656 494.561 25.129 473.028 25.129V25.129ZM38.972 45.129H473.029C483.489 45.129 492 53.639 492 64.1V115.116H20V64.1C20 53.639 28.511 45.129 38.972 45.129V45.129ZM473.028 466.887H38.972C28.511 466.887 20 458.376 20 447.915V135.115H492V447.915C492 458.377 483.489 466.887 473.028 466.887V466.887Z" fill="#DBC2F3"/>
<path d="M441.394 155.026H343.667C338.145 155.026 333.667 159.503 333.667 165.026C333.667 170.549 338.145 175.026 343.667 175.026H441.394C445.846 175.026 449.468 178.648 449.468 183.1V230.869C449.468 235.321 445.846 238.943 441.394 238.943H71.7561C67.3051 238.943 63.6831 235.321 63.6831 230.869V183.1C63.6831 178.648 67.3051 175.026 71.7561 175.026H263.667C269.189 175.026 273.667 170.549 273.667 165.026C273.667 159.503 269.189 155.026 263.667 155.026H71.7561C56.2771 155.026 43.6831 167.62 43.6831 183.1V230.869C43.6831 246.349 56.2771 258.943 71.7561 258.943H441.394C456.874 258.943 469.468 246.349 469.468 230.869V183.1C469.468 167.62 456.874 155.026 441.394 155.026Z" fill="#DBC2F3"/>
<path d="M281.658 271.129H71.7561C56.2771 271.129 43.6831 283.723 43.6831 299.203V423.99C43.6831 439.469 56.2771 452.063 71.7561 452.063H281.658C297.137 452.063 309.731 439.469 309.731 423.99V299.202C309.731 283.722 297.138 271.129 281.658 271.129ZM289.731 423.99C289.731 428.442 286.109 432.063 281.658 432.063H71.7561C67.3051 432.063 63.6831 428.441 63.6831 423.99V299.202C63.6831 294.75 67.3051 291.128 71.7561 291.128H281.658C286.109 291.128 289.731 294.75 289.731 299.202V423.99Z" fill="#DBC2F3"/>
<path d="M441.394 271.129H373.419C357.939 271.129 345.345 283.723 345.345 299.203V423.99C345.345 439.469 357.939 452.063 373.419 452.063H441.394C456.874 452.063 469.468 439.469 469.468 423.99V299.202C469.468 283.722 456.874 271.129 441.394 271.129ZM449.468 423.99C449.468 428.442 445.846 432.063 441.394 432.063H373.419C368.967 432.063 365.345 428.441 365.345 423.99V299.202C365.345 294.75 368.967 291.128 373.419 291.128H441.394C445.846 291.128 449.468 294.75 449.468 299.202V423.99Z" fill="#DBC2F3"/>
<path d="M430.864 95.844C434.769 99.749 441.099 99.75 445.007 95.844L448.702 92.149L452.397 95.844C456.303 99.749 462.633 99.749 466.54 95.844C470.445 91.939 470.445 85.607 466.54 81.702L462.845 78.007L466.54 74.312C470.445 70.407 470.445 64.075 466.54 60.17C462.635 56.265 456.305 56.265 452.397 60.17L448.702 63.865L445.007 60.17C441.101 56.265 434.771 56.265 430.864 60.17C426.959 64.075 426.959 70.407 430.864 74.312L434.559 78.007L430.864 81.702C426.959 85.608 426.959 91.939 430.864 95.844V95.844Z" fill="#DBC2F3"/>
<path d="M430.906 305.087H383.906C378.384 305.087 373.906 309.564 373.906 315.087C373.906 320.61 378.384 325.087 383.906 325.087H430.906C436.428 325.087 440.906 320.61 440.906 315.087C440.906 309.564 436.429 305.087 430.906 305.087Z" fill="#DBC2F3"/>
<path d="M430.906 347.701H383.906C378.384 347.701 373.906 352.178 373.906 357.701C373.906 363.224 378.384 367.701 383.906 367.701H430.906C436.428 367.701 440.906 363.224 440.906 357.701C440.906 352.178 436.429 347.701 430.906 347.701Z" fill="#DBC2F3"/>
<path d="M430.906 390.316H383.906C378.384 390.316 373.906 394.793 373.906 400.316C373.906 405.839 378.384 410.316 383.906 410.316H430.906C436.428 410.316 440.906 405.839 440.906 400.316C440.906 394.793 436.429 390.316 430.906 390.316Z" fill="#DBC2F3"/>
<path d="M147.879 332.838C143.974 328.933 137.644 328.933 133.736 332.838L119.119 347.454L104.502 332.838C100.596 328.933 94.2659 328.933 90.3589 332.838C86.4539 336.743 86.4539 343.075 90.3589 346.98L104.976 361.596L90.3599 376.213C86.4549 380.118 86.4549 386.45 90.3599 390.355C94.2649 394.26 100.595 394.261 104.503 390.355L119.12 375.739L133.737 390.355C137.643 394.26 143.973 394.26 147.88 390.355C151.785 386.45 151.785 380.118 147.88 376.213L133.263 361.597L147.88 346.981C151.784 343.074 151.784 336.743 147.879 332.838V332.838Z" fill="#DBC2F3"/>
<path d="M263.053 332.837C259.147 328.932 252.817 328.932 248.91 332.837L234.294 347.453L219.678 332.837C215.773 328.932 209.443 328.932 205.535 332.837C201.63 336.742 201.63 343.074 205.535 346.979L220.152 361.596L205.535 376.213C201.63 380.118 201.63 386.45 205.535 390.355C209.441 394.26 215.771 394.26 219.678 390.355L234.294 375.739L248.91 390.355C252.815 394.26 259.145 394.261 263.053 390.355C266.958 386.45 266.958 380.118 263.053 376.213L248.436 361.596L263.053 346.979C266.958 343.074 266.958 336.742 263.053 332.837Z" fill="#DBC2F3"/>
<path d="M369.067 98.774H398.03C403.552 98.774 408.03 94.297 408.03 88.774C408.03 83.251 403.552 78.774 398.03 78.774H369.067C363.545 78.774 359.067 83.251 359.067 88.774C359.067 94.297 363.545 98.774 369.067 98.774Z" fill="#DBC2F3"/>
<path d="M303.691 175.026C309.213 175.026 313.691 170.549 313.691 165.026C313.691 159.503 309.213 155.026 303.691 155.026H303.667C298.145 155.026 293.679 159.503 293.679 165.026C293.679 170.549 298.169 175.026 303.691 175.026Z" fill="#DBC2F3"/>
</g>
<defs>
<clipPath id="clip0">
<rect width="512" height="512" fill="white"/>
</clipPath>
</defs>
</svg>
