<svg width="512" height="512" viewBox="0 0 512 512" fill="none" xmlns="http://www.w3.org/2000/svg">
<path d="M75 512H437C478.355 512 512 478.355 512 437V75C512 33.6445 478.355 0 437 0H75C33.6445 0 0 33.6445 0 75V437C0 478.355 33.6445 512 75 512ZM30 75C30 50.1875 50.1875 30 75 30H437C461.812 30 482 50.1875 482 75V437C482 461.812 461.812 482 437 482H75C50.1875 482 30 461.812 30 437V75Z" fill="#DBC2F3"/>
<path d="M256 391C330.438 391 391 330.438 391 256C391 181.562 330.438 121 256 121C181.562 121 121 181.562 121 256C121 330.438 181.562 391 256 391ZM256 151C313.898 151 361 198.102 361 256C361 313.898 313.898 361 256 361C198.102 361 151 313.898 151 256C151 198.102 198.102 151 256 151Z" fill="#DBC2F3"/>
<path d="M406 151C430.812 151 451 130.812 451 106C451 81.1875 430.812 61 406 61C381.188 61 361 81.1875 361 106C361 130.812 381.188 151 406 151ZM406 91C414.27 91 421 97.7305 421 106C421 114.27 414.27 121 406 121C397.73 121 391 114.27 391 106C391 97.7305 397.73 91 406 91Z" fill="#DBC2F3"/>
</svg>
