<svg width="512" height="512" viewBox="0 0 512 512" fill="none" xmlns="http://www.w3.org/2000/svg">
<path d="M437 0H75C33.6445 0 0 33.6445 0 75V437C0 478.355 33.6445 512 75 512H437C478.355 512 512 478.355 512 437V75C512 33.6445 478.355 0 437 0ZM482 437C482 461.812 461.812 482 437 482H75C50.1875 482 30 461.812 30 437V75C30 50.1875 50.1875 30 75 30H437C461.812 30 482 50.1875 482 75V437Z" fill="#DBC2F3"/>
<path d="M91 422H181V210H91V422ZM121 240H151V392H121V240Z" fill="#DBC2F3"/>
<path d="M331.086 210C331.059 210 331.027 210 331 210C320.629 210 310.527 211.734 301 215.102V210H211V422H301V315C301 306.73 307.73 300 316 300C324.27 300 331 306.73 331 315V422H421V304.688C421 256.141 381.617 210.047 331.086 210ZM391 392H361V315C361 290.188 340.812 270 316 270C291.188 270 271.004 290.188 271 314.996V392H241V240H271V270.02L295.008 251.988C305.449 244.145 317.895 240 331 240H331.059C362.988 240.031 391 270.258 391 304.688V392Z" fill="#DBC2F3"/>
<path d="M91 180H181V90H91V180ZM121 120H151V150H121V120Z" fill="#DBC2F3"/>
</svg>
