<svg width="28" height="30" viewBox="0 0 28 30" fill="none" xmlns="http://www.w3.org/2000/svg">
<path d="M25.2017 3.90131H24.8457C25.5242 2.79667 25.2737 1.31363 24.1847 0.505695C23.0114 -0.364757 21.344 -0.0845673 20.5252 1.13908L18.6768 3.90137H2.79842C1.49327 3.90137 0.431458 4.96319 0.431458 6.26834V21.4013C0.431458 22.7064 1.49327 23.7682 2.79842 23.7682H11.9924L11.2977 26.686H9.79842C8.82127 26.686 8.02629 27.4809 8.02629 28.4581V28.8281H6.17799C5.85438 28.8281 5.59206 29.0905 5.59206 29.414C5.59206 29.7375 5.85438 29.9999 6.17799 29.9999H21.8222C22.1458 29.9999 22.4081 29.7375 22.4081 29.414C22.4081 29.0905 22.1458 28.8281 21.8222 28.8281H19.9739V28.4581C19.9739 27.4809 19.1789 26.686 18.2017 26.686H16.7024L16.0077 23.7682H25.2017C26.5069 23.7682 27.5687 22.7064 27.5687 21.4013V18.0715V6.26828C27.5687 4.96313 26.5069 3.90131 25.2017 3.90131ZM16.8064 14.2018C15.8903 14.8431 14.1741 13.9714 12.5351 14.846C12.1352 12.7686 12.3873 10.8148 14.4688 10.3836C14.7378 10.3275 15.0275 10.3021 15.274 10.3071C15.9785 10.8298 16.6911 11.3585 17.3937 11.8798C17.7012 12.7743 17.5858 13.6563 16.8064 14.2018ZM17.3969 7.92141L19.0555 9.15197L17.78 10.7071C17.2549 10.3175 16.8035 9.98258 16.2784 9.59294C16.3874 9.42999 17.2972 8.07029 17.3969 7.92141ZM21.4992 1.79081C21.943 1.12748 22.8481 0.973146 23.4865 1.44687C24.1251 1.92065 24.2395 2.83153 23.7334 3.44857C22.8355 4.54325 20.7008 7.146 19.7994 8.2449L18.0493 6.94637L21.4992 1.79081ZM18.8019 28.4581V28.8281H9.19814V28.4581C9.19814 28.1271 9.46743 27.8578 9.79842 27.8578H18.2017C18.5326 27.8578 18.8019 28.1271 18.8019 28.4581ZM15.4977 26.686H12.5024L13.197 23.7682H14.8031L15.4977 26.686ZM26.3968 21.4013C26.3968 22.0603 25.8607 22.5964 25.2017 22.5964C24.2716 22.5964 3.84424 22.5964 2.79848 22.5964C2.13949 22.5964 1.60337 22.0603 1.60337 21.4013V18.6574H3.27771C3.60132 18.6574 3.86364 18.395 3.86364 18.0715C3.86364 17.7479 3.60132 17.4855 3.27771 17.4855H1.60325V6.26828C1.60325 5.60929 2.13937 5.07316 2.79836 5.07316H17.8927C17.3314 5.91203 15.6938 8.35933 15.1751 9.13445C14.0268 9.14482 12.8805 9.54484 12.13 10.4209C11.1088 11.613 10.9294 13.4861 11.5967 15.9881C11.7108 16.4159 12.2447 16.5692 12.5677 16.2607C14.0827 14.813 15.9696 16.3921 17.6594 15.0244C18.6908 14.1895 18.9349 12.8621 18.546 11.6209C19.0718 10.9799 23.3895 5.71569 23.9165 5.07316H25.2016C25.8606 5.07316 26.3967 5.60929 26.3967 6.26828V17.4855H7.965C7.6414 17.4855 7.37908 17.7479 7.37908 18.0714C7.37908 18.395 7.6414 18.6573 7.965 18.6573H26.3968V21.4013Z" fill="#DBC2F3"/>
</svg>
