<svg width="30" height="30" viewBox="0 0 30 30" fill="none" xmlns="http://www.w3.org/2000/svg">
<g clip-path="url(#clip0)">
<path d="M28.0736 14.8348H22.863C22.863 14.2357 22.863 4.54068 22.863 3.88431C22.863 2.68284 21.8856 1.70538 20.6841 1.70538H2.17893C0.977461 1.70544 0 2.6829 0 3.88431V18.2683C0 19.4697 0.977461 20.4472 2.17893 20.4472H14.6164V25.3917V26.3682C14.6164 27.4304 15.4805 28.2946 16.5428 28.2946H28.0736C29.1359 28.2946 30.0001 27.4304 30.0001 26.3682C30.0001 23.4127 30.0001 19.7909 30.0001 16.7612C30 15.699 29.1358 14.8348 28.0736 14.8348ZM15.7882 19.8612V19.0476H25.4782C24.6289 21.1461 26.7297 23.2468 28.8281 22.3975V22.8522L26.9881 24.1378C26.5561 24.4396 25.9648 24.3959 25.582 24.0339L22.561 21.1771C21.4035 20.0826 19.5544 20.1175 18.439 21.2547L15.7882 23.9575V19.8612ZM26.8493 19.0476H28.8281V21.0265C28.569 21.2742 28.2262 21.4132 27.8626 21.4132C26.6316 21.4132 26.0057 19.93 26.8493 19.0476ZM28.8281 16.7612V17.8757C28.4419 17.8757 16.1747 17.8757 15.7882 17.8757V16.7612C15.7882 16.3451 16.1267 16.0067 16.5428 16.0067H28.0736C28.4896 16.0067 28.8281 16.3451 28.8281 16.7612ZM2.17893 19.2753C1.62363 19.2753 1.17188 18.8235 1.17188 18.2683V8.0832H15.4102C15.7337 8.0832 15.9961 7.82087 15.9961 7.49726C15.9961 7.17365 15.7337 6.91132 15.4102 6.91132H1.17188V3.88437C1.17188 3.32907 1.62363 2.87732 2.17893 2.87732H20.6842C21.2395 2.87732 21.6912 3.32907 21.6912 3.88437V6.91132H20.0977C19.7741 6.91132 19.5117 7.17365 19.5117 7.49726C19.5117 7.82087 19.7741 8.0832 20.0977 8.0832H21.6912V14.8348H16.5427C15.4805 14.8348 14.6163 15.699 14.6163 16.7612V19.2752H2.17893V19.2753ZM28.8281 26.3682C28.8281 26.7843 28.4896 27.1227 28.0736 27.1227H16.5427C16.1266 27.1227 15.7882 26.7842 15.7882 26.3682V25.6311L19.2758 22.0753C19.9468 21.3911 21.0594 21.37 21.7558 22.0286L24.7768 24.8854C25.5617 25.6276 26.774 25.7172 27.6593 25.0985L28.8281 24.2818V26.3682Z" fill="#DBC2F3"/>
<path d="M3.34876 3.25696C2.47818 3.25696 1.7699 3.96524 1.7699 4.83583C1.7699 5.70641 2.47818 6.41475 3.34876 6.41475C4.21935 6.41475 4.92769 5.70647 4.92769 4.83583C4.92769 3.96518 4.21941 3.25696 3.34876 3.25696ZM3.34876 5.24288C3.12435 5.24288 2.94177 5.0603 2.94177 4.83583C2.94177 4.61141 3.12435 4.42883 3.34876 4.42883C3.57318 4.42883 3.75576 4.61141 3.75576 4.83583C3.75582 5.0603 3.57318 5.24288 3.34876 5.24288Z" fill="#DBC2F3"/>
<path d="M7.16914 3.25696C6.29855 3.25696 5.59027 3.96524 5.59027 4.83583C5.59027 5.70641 6.29855 6.41475 7.16914 6.41475C8.03972 6.41475 8.748 5.70647 8.748 4.83583C8.748 3.96518 8.03972 3.25696 7.16914 3.25696ZM7.16914 5.24288C6.94472 5.24288 6.76215 5.0603 6.76215 4.83583C6.76215 4.61141 6.94472 4.42883 7.16914 4.42883C7.39355 4.42883 7.57613 4.61141 7.57613 4.83583C7.57613 5.0603 7.39355 5.24288 7.16914 5.24288Z" fill="#DBC2F3"/>
<path d="M10.9895 3.25696C10.1189 3.25696 9.41058 3.96524 9.41058 4.83583C9.41058 5.70641 10.1189 6.41475 10.9895 6.41475C11.86 6.41475 12.5684 5.70647 12.5684 4.83583C12.5684 3.96518 11.86 3.25696 10.9895 3.25696ZM10.9895 5.24288C10.765 5.24288 10.5825 5.0603 10.5825 4.83583C10.5825 4.61141 10.765 4.42883 10.9895 4.42883C11.2139 4.42883 11.3965 4.61141 11.3965 4.83583C11.3965 5.0603 11.2139 5.24288 10.9895 5.24288Z" fill="#DBC2F3"/>
<path d="M9.76516 12.1073C9.97656 11.8622 9.94932 11.4922 9.70428 11.2809C9.45918 11.0694 9.08928 11.0968 8.87787 11.3418L7.90949 12.4641C7.495 12.9447 7.495 13.6694 7.90955 14.15L8.87787 15.2723C9.08887 15.5169 9.45889 15.5449 9.70428 15.3332C9.94932 15.1219 9.97656 14.7519 9.76516 14.5068L8.79689 13.3845C8.75881 13.3404 8.75881 13.2738 8.79684 13.2296L9.76516 12.1073Z" fill="#DBC2F3"/>
<path d="M14.9536 12.4641L13.9852 11.3417C13.7739 11.0967 13.4038 11.0695 13.1588 11.2808C12.9138 11.4922 12.8865 11.8622 13.0979 12.1072L14.0662 13.2295C14.1043 13.2737 14.1043 13.3403 14.0663 13.3844L13.0979 14.5068C12.8865 14.7518 12.9138 15.1218 13.1588 15.3332C13.4043 15.545 13.7743 15.5168 13.9852 15.2723L14.9536 14.1499C15.3681 13.6694 15.3681 12.9447 14.9536 12.4641Z" fill="#DBC2F3"/>
<path d="M11.8753 10.7752C11.5566 10.7185 11.2525 10.9311 11.1959 11.2498L10.5132 15.0975C10.4497 15.4558 10.7251 15.7859 11.0909 15.7859C11.3696 15.7859 11.6167 15.5862 11.6671 15.3023L12.3498 11.4545C12.4063 11.1359 12.1938 10.8318 11.8753 10.7752Z" fill="#DBC2F3"/>
<path d="M17.7553 8.08319C18.0789 8.08319 18.3413 7.82087 18.3413 7.49725C18.3413 7.17364 18.0789 6.91132 17.7553 6.91132H17.7539C17.4303 6.91132 17.1687 7.17364 17.1687 7.49725C17.1687 7.82087 17.4318 8.08319 17.7553 8.08319Z" fill="#DBC2F3"/>
</g>
<defs>
<clipPath id="clip0">
<rect width="30" height="30" fill="white"/>
</clipPath>
</defs>
</svg>
