<svg width="30" height="30" viewBox="0 0 30 30" fill="none" xmlns="http://www.w3.org/2000/svg">
<g clip-path="url(#clip0)">
<path d="M28.2094 0.571836H20.3385C19.3511 0.571836 18.5479 1.3751 18.5479 2.36252V8.19828L18.1341 8.61207C17.8635 8.479 17.5852 8.36351 17.301 8.26637V6.86305C17.301 5.91283 16.5277 5.1398 15.5771 5.1398H14.4229C13.4723 5.1398 12.699 5.91283 12.699 6.86305V8.26631C12.4148 8.36346 12.1365 8.47894 11.8659 8.61201L11.4521 8.19822V2.36246C11.4521 1.37504 10.6489 0.571777 9.66152 0.571777H1.79062C0.803262 0.571836 0 1.3751 0 2.36246V9.35152C0 10.3389 0.803262 11.1422 1.79062 11.1422H7.88836L8.61211 11.866C8.47904 12.1365 8.36355 12.4148 8.26635 12.6991H6.86309C5.91287 12.6991 5.13984 13.4724 5.13984 14.4229V15.5772C5.13984 16.5277 5.91287 17.301 6.86309 17.301H8.26635C8.3635 17.5852 8.47898 17.8636 8.61205 18.1341L7.8883 18.8579H1.79062C0.803262 18.8578 0 19.661 0 20.6484V27.6374C0 28.6248 0.803262 29.4281 1.79062 29.4281H9.66152C10.6489 29.4281 11.4521 28.6248 11.4521 27.6374C11.4521 27.4009 11.4521 22.049 11.4521 21.8016L11.8659 21.3878C12.1365 21.5209 12.4148 21.6363 12.699 21.7335V23.1368C12.699 24.087 13.4723 24.86 14.4229 24.86H15.5771C16.5277 24.86 17.301 24.087 17.301 23.1368V21.7335C17.5852 21.6363 17.8636 21.5209 18.1341 21.3878L18.5479 21.8016V27.6375C18.5479 28.6249 19.3511 29.4281 20.3385 29.4281H28.2094C29.1967 29.4281 30 28.6249 30 27.6375C30 25.1412 30 23.1348 30 20.6485C30 19.661 29.1967 18.8578 28.2094 18.8578H22.1116L21.3879 18.134C21.521 17.8635 21.6364 17.5851 21.7336 17.3009H23.1369C24.0871 17.3009 24.8601 16.5276 24.8601 15.577V14.4228C24.8601 13.4722 24.0871 12.699 23.1369 12.699H21.7336C21.6364 12.4147 21.5209 12.1364 21.3878 11.8658L22.1116 11.1421H28.2094C29.1967 11.1421 30 10.3388 30 9.35141V3.58578V2.36264V2.36246C30 1.3751 29.1967 0.571836 28.2094 0.571836ZM1.17188 2.36264C1.17188 2.0215 1.44943 1.74389 1.79057 1.74389H9.66147C10.0026 1.74389 10.2802 2.02145 10.2802 2.36264V2.9999H1.17188V2.36264ZM1.79062 9.97027C1.44943 9.97027 1.17188 9.69271 1.17188 9.35146V4.17178H10.2803V7.23219C10.1309 7.17383 9.95596 7.13328 9.78539 7.12086C8.669 7.03637 8.28978 7.86312 7.61941 8.43617C7.21441 8.84111 7.04209 9.41785 7.14445 9.97027H1.79062ZM1.17188 20.6484C1.17188 20.3072 1.44943 20.0296 1.79062 20.0296H7.14445C7.06441 20.4625 7.15295 20.9158 7.39354 21.2853H1.17188V20.6484ZM10.2803 27.6375C10.2803 27.9786 10.0027 28.2563 9.66152 28.2563H1.79062C1.44943 28.2563 1.17188 27.9787 1.17188 27.6375V22.4572H8.51865C9.01728 22.8939 9.70178 22.9927 10.2803 22.7676V27.6375ZM21.4813 22.4572H28.8281V26.0885L28.0888 25.5782C27.3941 25.0986 26.4745 25.118 25.8005 25.6262L25.1851 26.0902C25.0522 26.1903 24.8699 26.186 24.742 26.0794L23.5371 25.0753C22.871 24.5202 21.9366 24.467 21.2118 24.9428L19.7197 25.9224V22.7676C20.3222 23.0002 21.0074 22.8771 21.4813 22.4572ZM28.8281 27.6373C28.8281 27.9784 28.5506 28.256 28.2094 28.256H20.3385C19.9974 28.256 19.7198 27.9785 19.7198 27.6373V27.3243L21.8549 25.9224C22.1452 25.7316 22.5198 25.7529 22.7868 25.9755L23.9917 26.9797C24.5399 27.4365 25.3208 27.4555 25.8905 27.0259L26.5059 26.5618C26.776 26.3581 27.1445 26.3503 27.4229 26.5425L28.8281 27.5124V27.6373ZM28.2094 20.0296C28.5506 20.0296 28.8281 20.3072 28.8281 20.6485V21.2853H22.6065C22.849 20.9128 22.9348 20.4584 22.8555 20.0296H28.2094ZM23.1369 13.8709C23.441 13.8709 23.6883 14.1185 23.6883 14.4228V15.577C23.6883 15.8814 23.441 16.129 23.1369 16.129H21.3006C21.036 16.129 20.8043 16.3062 20.7351 16.5616C20.6041 17.0449 20.4102 17.5122 20.1589 17.9504C20.0273 18.18 20.0658 18.4692 20.2529 18.6563L21.5519 19.9553C21.7669 20.1703 21.7669 20.5201 21.5519 20.7351C21.4161 20.8709 21.0554 21.2316 20.7351 21.5519C20.5201 21.7668 20.1703 21.7668 19.9554 21.552C19.9477 21.5442 19.8545 21.451 19.8604 21.4569C19.6449 21.2414 18.9857 20.5822 18.6563 20.2528C18.4692 20.0657 18.18 20.0271 17.9505 20.1588C17.5124 20.41 17.0451 20.6039 16.5617 20.7349C16.3064 20.8042 16.1291 21.0359 16.1291 21.3004V23.1368C16.1291 23.4408 15.8815 23.6881 15.5771 23.6881H14.4229C14.1185 23.6881 13.8709 23.4408 13.8709 23.1368V21.3004C13.8709 21.0359 13.6937 20.8041 13.4383 20.7349C12.3069 20.4281 12.1062 20.0812 11.7582 20.0812C11.6065 20.0812 11.4565 20.1399 11.3436 20.2528C9.63123 21.9652 11.7537 19.8426 10.0447 21.5519C9.83232 21.7641 9.45879 21.8026 9.16998 21.4569C8.50014 20.7597 8.3765 20.7289 8.30953 20.5023C8.19346 20.1094 8.51725 19.9021 8.54537 19.858C10.3999 18.0035 9.4817 18.9217 9.74713 18.6563C9.93422 18.4692 9.97272 18.18 9.84111 17.9504C9.58975 17.5122 9.39592 17.0449 9.2649 16.5616C9.1957 16.3063 8.96396 16.129 8.69941 16.129H6.86309C6.55904 16.129 6.31172 15.8814 6.31172 15.577V14.4228C6.31172 14.1185 6.55904 13.8709 6.86309 13.8709H8.69941C8.96396 13.8709 9.1957 13.6936 9.2649 13.4383C9.39598 12.9549 9.5898 12.4876 9.84111 12.0494C9.97272 11.8199 9.93422 11.5306 9.74713 11.3436C9.3583 10.9548 9.04096 10.6374 8.44811 10.0446C8.23312 9.82959 8.23312 9.47978 8.44811 9.2648C9.30123 8.41303 9.26678 8.44273 9.30674 8.41021C9.52441 8.23273 9.84422 8.2475 10.0447 8.44801L10.2483 8.65162C11.6882 10.0916 11.1862 9.58959 11.3437 9.74703C11.5308 9.93406 11.8199 9.97267 12.0495 9.84101C12.4878 9.58971 12.9551 9.39582 13.4384 9.2648C13.6937 9.19555 13.871 8.96381 13.871 8.69932V6.86299C13.871 6.559 14.1186 6.31162 14.4229 6.31162H15.5772C15.8815 6.31162 16.1292 6.559 16.1292 6.86299V8.69932C16.1292 8.96387 16.3064 9.1956 16.5618 9.2648C17.045 9.39582 17.5123 9.58971 17.9507 9.84101C18.1802 9.9725 18.4693 9.93406 18.6564 9.74703C19.2804 9.12307 17.8238 10.5796 19.9554 8.44801C20.1704 8.23303 20.5202 8.23291 20.7352 8.44801L21.552 9.2648C21.767 9.47978 21.767 9.82959 21.552 10.0446C21.173 10.4236 20.8376 10.7589 20.253 11.3436C20.0659 11.5306 20.0274 11.8199 20.159 12.0494C20.4103 12.4876 20.6041 12.9549 20.7352 13.4383C20.8044 13.6936 21.0362 13.8709 21.3007 13.8709H23.1369ZM28.2094 9.97027H22.8555C22.9329 9.55273 22.8512 9.11803 22.6389 8.76705C22.4641 8.47625 22.2473 8.30428 21.5637 7.61937C21.0736 7.1293 20.346 6.98961 19.7197 7.23225V4.17178H23.6914C24.015 4.17178 24.2773 3.90939 24.2773 3.58584C24.2773 3.26229 24.015 2.9999 23.6914 2.9999H19.7198V2.36264C19.7198 2.0215 19.9974 1.74389 20.3385 1.74389H28.2094C28.5506 1.74389 28.8281 2.02145 28.8281 2.36264V2.9999H28.3789C28.0553 2.9999 27.7929 3.26229 27.7929 3.58584C27.7929 3.90939 28.0553 4.17178 28.3789 4.17178H28.8281V9.35146C28.8281 9.69271 28.5506 9.97027 28.2094 9.97027Z" fill="#DBC2F3"/>
<path d="M7.34447 8.22644C8.26685 7.68884 8.26803 6.35601 7.34447 5.81771L5.51142 4.74931C4.58248 4.20778 3.41547 4.87704 3.41547 5.9537V8.09056C3.41547 8.89751 4.07705 9.48685 4.80959 9.48685C5.42617 9.48679 5.66148 9.15122 7.34447 8.22644ZM6.75437 7.21399L4.92127 8.28239C4.77203 8.36929 4.58728 8.26183 4.58728 8.0905V5.95364C4.58728 5.78196 4.77197 5.67468 4.92127 5.76175L6.75437 6.83015C6.90103 6.91564 6.90279 7.12757 6.75437 7.21399Z" fill="#DBC2F3"/>
<path d="M8.52465 23.0569H5.17578C4.85217 23.0569 4.58984 23.3193 4.58984 23.6428C4.58984 23.9664 4.85217 24.2288 5.17578 24.2288H8.5246C8.84821 24.2288 9.11053 23.9664 9.11053 23.6428C9.11053 23.3193 8.84827 23.0569 8.52465 23.0569Z" fill="#DBC2F3"/>
<path d="M8.52466 24.7958H2.92743C2.60382 24.7958 2.34149 25.0582 2.34149 25.3817C2.34149 25.7053 2.60382 25.9677 2.92743 25.9677H8.52466C8.84827 25.9677 9.11059 25.7053 9.11059 25.3817C9.11059 25.0582 8.84827 24.7958 8.52466 24.7958Z" fill="#DBC2F3"/>
<path d="M8.52466 26.5345H2.92743C2.60382 26.5345 2.34149 26.7969 2.34149 27.1205C2.34149 27.444 2.60382 27.7064 2.92743 27.7064H8.52466C8.84827 27.7064 9.11059 27.444 9.11059 27.1205C9.11059 26.7969 8.84827 26.5345 8.52466 26.5345Z" fill="#DBC2F3"/>
<path d="M25.2973 6.29464H24.8599V5.8573C24.8599 5.53374 24.5976 5.27136 24.274 5.27136C23.9504 5.27136 23.6881 5.53374 23.6881 5.8573V6.29464H23.2507C22.9271 6.29464 22.6648 6.55702 22.6648 6.88058C22.6648 7.20413 22.9271 7.46651 23.2507 7.46651H23.6881V7.90386C23.6881 8.22741 23.9504 8.48979 24.274 8.48979C24.5976 8.48979 24.8599 8.22741 24.8599 7.90386V7.46651H25.2973C25.6209 7.46651 25.8832 7.20413 25.8832 6.88058C25.8832 6.55702 25.6209 6.29464 25.2973 6.29464Z" fill="#DBC2F3"/>
<path d="M15 11.4586C13.0473 11.4586 11.4586 13.0473 11.4586 15C11.4586 16.9527 13.0473 18.5413 15 18.5413C16.9528 18.5413 18.5414 16.9527 18.5414 15C18.5414 13.0473 16.9528 11.4586 15 11.4586ZM15 17.3694C13.6934 17.3694 12.6305 16.3065 12.6305 15C12.6305 13.6934 13.6934 12.6305 15 12.6305C16.3066 12.6305 17.3696 13.6934 17.3696 15C17.3696 16.3065 16.3066 17.3694 15 17.3694Z" fill="#DBC2F3"/>
<path d="M26.0366 3H26.0351C25.7115 3 25.45 3.26238 25.45 3.58594C25.45 3.90949 25.713 4.17187 26.0366 4.17187C26.3602 4.17187 26.6225 3.90949 26.6225 3.58594C26.6225 3.26238 26.3602 3 26.0366 3Z" fill="#DBC2F3"/>
</g>
<defs>
<clipPath id="clip0">
<rect width="30" height="30" fill="white"/>
</clipPath>
</defs>
</svg>
