<svg width="60" height="60" viewBox="0 0 60 60" fill="none" xmlns="http://www.w3.org/2000/svg">
<path d="M39.0021 27.3557V25.8484C39.0021 23.7587 37.302 22.0585 35.2124 22.0585H28.8626V17.8627H35.7324C37.4046 17.8627 38.7649 16.5024 38.7649 14.8303V10.2298C38.7649 8.5577 37.4046 7.19727 35.7324 7.19727H19.649C17.9769 7.19727 16.6166 8.5577 16.6166 10.2298V14.8302C16.6166 16.5023 17.9769 17.8626 19.649 17.8626H26.5189V22.0584H20.1691C18.0794 22.0584 16.3793 23.7586 16.3793 25.8482V28.3659C15.2941 28.8281 14.5312 29.9053 14.5312 31.1573V34.1662C14.5312 35.396 15.2675 36.4564 16.322 36.9317V43.5227C14.834 44.0155 13.7572 45.419 13.7572 47.0701C13.7572 49.1305 15.4335 50.8067 17.4938 50.8067C19.5542 50.8067 21.2305 49.1305 21.2305 47.0701C21.2305 45.419 20.1536 44.0155 18.6657 43.5227V37.1987H24.8452V43.5227C23.3573 44.0155 22.2805 45.419 22.2805 47.0701C22.2805 49.1305 23.9567 50.8067 26.0171 50.8067C28.0775 50.8067 29.7538 49.1305 29.7538 47.0701C29.7538 45.419 28.6769 44.0155 27.189 43.5227V36.8759C28.1804 36.3767 28.8626 35.3499 28.8626 34.1662V31.1573C28.8626 29.4852 27.5021 28.1248 25.83 28.1248H18.723V25.8482C18.723 25.0509 19.3718 24.4021 20.1691 24.4021H35.2125C36.0098 24.4021 36.6585 25.0509 36.6585 25.8482V27.3556C34.2596 27.892 32.4609 30.0366 32.4609 32.5947C32.4609 35.1528 34.2596 37.2975 36.6583 37.8337V43.5227C35.1704 44.0156 34.0936 45.419 34.0936 47.0701C34.0936 49.1305 35.7698 50.8067 37.8302 50.8067C39.8906 50.8067 41.567 49.1305 41.567 47.0701C41.567 45.419 40.49 44.0155 39.0021 43.5227V37.8337C41.4009 37.2975 43.1996 35.1528 43.1996 32.5947C43.1996 30.0366 41.4009 27.892 39.0021 27.3557ZM18.9602 14.8302V10.2298C18.9602 9.85004 19.2692 9.54102 19.6489 9.54102H35.7323C36.112 9.54102 36.421 9.85004 36.421 10.2298V14.8302C36.421 15.21 36.112 15.5189 35.7323 15.5189H19.649C19.2692 15.519 18.9602 15.21 18.9602 14.8302ZM17.4938 48.4631C16.7258 48.4631 16.101 47.8382 16.101 47.0702C16.101 46.3021 16.7258 45.6773 17.4938 45.6773C18.2619 45.6773 18.8867 46.3021 18.8867 47.0702C18.8867 47.8382 18.2619 48.4631 17.4938 48.4631ZM26.0171 48.4631C25.2491 48.4631 24.6242 47.8382 24.6242 47.0702C24.6242 46.3021 25.2491 45.6773 26.0171 45.6773C26.7852 45.6773 27.41 46.3021 27.41 47.0702C27.41 47.8382 26.7852 48.4631 26.0171 48.4631ZM26.5188 31.1573V34.1662C26.5188 34.546 26.2098 34.8549 25.83 34.8549H17.5637C17.1839 34.8549 16.875 34.5459 16.875 34.1662V31.1573C16.875 30.7775 17.184 30.4686 17.5637 30.4686H25.83C26.2099 30.4686 26.5188 30.7776 26.5188 31.1573ZM37.8302 48.4631C37.0622 48.4631 36.4373 47.8382 36.4373 47.0702C36.4373 46.3033 37.0603 45.6793 37.8268 45.6774H37.8336C38.6001 45.6793 39.2232 46.3032 39.2232 47.0702C39.2232 47.8382 38.5984 48.4631 37.8302 48.4631ZM37.8302 35.6204C36.1619 35.6204 34.8047 34.263 34.8047 32.5947C34.8047 30.9264 36.1619 29.5691 37.8302 29.5691C39.4986 29.5691 40.8559 30.9264 40.8559 32.5947C40.8559 34.263 39.4987 35.6204 37.8302 35.6204Z" fill="#F3C2D8"/>
<path d="M42.1643 0.703369H9.27609C6.56613 0.703369 4.36148 2.90802 4.36148 5.61798V6.19302H3.95414C1.77387 6.19302 0 7.96689 0 10.1473C0 12.3277 1.77387 14.1015 3.95426 14.1015H4.3616V16.1194H3.95426C1.77387 16.1193 0 17.8931 0 20.0735C0 22.2539 1.77387 24.0278 3.95426 24.0278H4.3616V26.0456H3.95426C1.77387 26.0456 0 27.8195 0 29.9999C0 32.1803 1.77387 33.9542 3.95426 33.9542H4.3616V35.972H3.95426C1.77387 35.972 0 37.7459 0 39.9263C0 42.1067 1.77387 43.8805 3.95426 43.8805H4.3616V45.8984H3.95426C1.77387 45.8984 0 47.6721 0 49.8525C0 52.0329 1.77387 53.8068 3.95426 53.8068H4.3616V54.3818C4.3616 57.0918 6.56625 59.2964 9.27621 59.2964H42.1644C44.8743 59.2964 47.0789 57.0918 47.0789 54.3818V5.61798C47.0787 2.90802 44.8741 0.703369 42.1643 0.703369ZM2.34375 10.1473C2.34375 9.25923 3.06621 8.53677 3.95426 8.53677H7.4134C8.30145 8.53677 9.02391 9.25923 9.02391 10.1473C9.02391 11.0353 8.30145 11.7578 7.4134 11.7578C6.56613 11.7578 4.84898 11.7578 3.95426 11.7578C3.06621 11.7577 2.34375 11.0352 2.34375 10.1473ZM2.34375 20.0735C2.34375 19.1855 3.06621 18.463 3.95426 18.463H7.4134C8.30145 18.463 9.02391 19.1855 9.02391 20.0735C9.02391 20.9616 8.30145 21.684 7.4134 21.684C6.56613 21.684 4.84898 21.684 3.95426 21.684C3.06621 21.684 2.34375 20.9616 2.34375 20.0735ZM2.34375 29.9999C2.34375 29.1118 3.06621 28.3894 3.95426 28.3894H7.4134C8.30145 28.3894 9.02391 29.1118 9.02391 29.9999C9.02391 30.8879 8.30145 31.6104 7.4134 31.6104C6.56613 31.6104 4.84898 31.6104 3.95426 31.6104C3.06621 31.6104 2.34375 30.8879 2.34375 29.9999ZM2.34375 39.9263C2.34375 39.0382 3.06621 38.3158 3.95426 38.3158H7.4134C8.30145 38.3158 9.02391 39.0382 9.02391 39.9263C9.02391 40.8143 8.30145 41.5368 7.4134 41.5368C6.56613 41.5368 4.84898 41.5368 3.95426 41.5368C3.06621 41.5368 2.34375 40.8143 2.34375 39.9263ZM2.34375 49.8525C2.34375 48.9645 3.06621 48.242 3.95426 48.242H7.4134C8.30145 48.242 9.02391 48.9645 9.02391 49.8525C9.02391 50.7406 8.30145 51.463 7.4134 51.463C6.56613 51.463 4.84898 51.463 3.95426 51.463C3.06621 51.463 2.34375 50.7406 2.34375 49.8525ZM44.7349 54.3818C44.7349 55.7993 43.5817 56.9527 42.1642 56.9527H9.27609C7.85859 56.9527 6.70523 55.7994 6.70523 54.3818V53.8068H7.41328C9.59367 53.8068 11.3675 52.0329 11.3675 49.8525C11.3675 47.6721 9.59367 45.8983 7.41328 45.8983H6.70523V43.8804H7.41328C9.59367 43.8804 11.3675 42.1065 11.3675 39.9261C11.3675 37.7458 9.59367 35.9719 7.41328 35.9719H6.70523V33.954H7.41328C9.59367 33.954 11.3675 32.1802 11.3675 29.9998C11.3675 27.8194 9.59367 26.0455 7.41328 26.0455H6.70523V24.0277H7.41328C9.59367 24.0277 11.3675 22.2538 11.3675 20.0734C11.3675 17.893 9.59367 16.1191 7.41328 16.1191H6.70523V14.1013H7.41328C9.59367 14.1013 11.3675 12.3274 11.3675 10.147C11.3675 7.96665 9.59379 6.19302 7.4134 6.19302H6.70535V5.61798C6.70535 4.20048 7.85859 3.04712 9.27621 3.04712H42.1644C43.5819 3.04712 44.7352 4.20036 44.7352 5.61798V54.3818H44.7349Z" fill="#F3C2D8"/>
</svg>
