<svg width="30" height="30" viewBox="0 0 30 30" fill="none" xmlns="http://www.w3.org/2000/svg">
<g clip-path="url(#clip0)">
<path d="M27.2718 2.91345H2.7283C1.22391 2.91345 0 4.1373 0 5.64169V24.3584C0 25.8628 1.22391 27.0867 2.7283 27.0867H27.2718C28.7762 27.0867 30.0001 25.8628 30.0001 24.3584C30.0001 23.8374 30.0001 6.12931 30.0001 5.64169C30 4.1373 28.7761 2.91345 27.2718 2.91345ZM1.17188 5.64169C1.17188 4.78353 1.87008 4.08527 2.7283 4.08527H27.2718C28.1299 4.08527 28.8282 4.78347 28.8282 5.64169V9.59818H1.17188V5.64169ZM6.52992 25.9148V25.4081H7.36324C7.68686 25.4081 7.94918 25.1457 7.94918 24.8221C7.94918 24.4986 7.68686 24.2362 7.36324 24.2362H6.52992V23.5076H7.36324C7.68686 23.5076 7.94918 23.2453 7.94918 22.9217C7.94918 22.5981 7.68686 22.3358 7.36324 22.3358H6.52992V21.6071H7.36324C7.68686 21.6071 7.94918 21.3448 7.94918 21.0212C7.94918 20.6977 7.68686 20.4353 7.36324 20.4353H6.52992V19.7186C6.52992 19.6318 6.60059 19.5611 6.68742 19.5611H8.81824C8.90508 19.5611 8.97574 19.6318 8.97574 19.7186V25.9148H6.52992ZM16.0795 20.8864H15.5859V17.9643C15.5859 17.6408 15.3236 17.3784 15 17.3784C14.6764 17.3784 14.4141 17.6408 14.4141 17.9643V20.8864H13.9403L12.2231 16.7662C12.0945 16.4578 12.1727 16.0985 12.4174 15.872C13.2383 15.113 14.2713 14.0477 15.0101 12.9056C15.7464 14.0478 16.7732 15.1136 17.5888 15.873C17.831 16.0985 17.9086 16.4559 17.782 16.7626L16.0795 20.8864ZM13.0717 25.9148V22.4187C13.0717 22.2199 13.2334 22.0583 13.4321 22.0583H16.5679C16.7666 22.0583 16.9283 22.22 16.9283 22.4187V25.9148H13.0717ZM21.4731 19.5364C21.4731 19.4396 21.5519 19.3609 21.6487 19.3609H22.0516C22.1484 19.3609 22.2271 19.4396 22.2271 19.5364V19.9724H21.4731V19.5364ZM20.9131 25.9148V21.2505C20.9131 21.192 20.9607 21.1443 21.0193 21.1443H22.6809C22.7395 21.1443 22.7871 21.192 22.7871 21.2505V25.9148H20.9131ZM27.2718 25.9148H23.959V21.2505C23.959 20.8118 23.7367 20.4241 23.399 20.1939V19.5364C23.399 18.927 22.9922 18.4111 22.4361 18.2452V16.8084C22.4361 16.4849 22.1737 16.2225 21.8501 16.2225C21.5265 16.2225 21.2642 16.4849 21.2642 16.8084V18.2452C20.708 18.4111 20.3013 18.927 20.3013 19.5364V20.1939C19.9635 20.4241 19.7413 20.8118 19.7413 21.2505V25.9148H18.1001V22.4187C18.1001 21.829 17.7651 21.3164 17.2756 21.0603L18.8653 17.2097C19.1773 16.4538 18.9853 15.5719 18.3874 15.0152C17.5991 14.2812 16.1813 12.843 15.5427 11.4589C15.3337 11.0057 14.6876 11.0058 14.4786 11.4589C13.8408 12.8415 12.415 14.2782 11.6218 15.0117C11.0176 15.5705 10.8245 16.4567 11.1414 17.217L12.7399 21.0524C12.242 21.3057 11.8999 21.8229 11.8999 22.4187V25.9148H10.1476V19.7186C10.1476 18.9856 9.55125 18.3892 8.81824 18.3892H6.68742C5.95441 18.3892 5.35805 18.9856 5.35805 19.7186V25.9148H2.7283C1.87008 25.9148 1.17188 25.2166 1.17188 24.3584V10.7701H28.8281V24.3584C28.8281 25.2166 28.1299 25.9148 27.2718 25.9148Z" fill="#DBC2F3"/>
<path d="M4.16365 5.2489C3.18648 5.2489 2.39148 6.04384 2.39148 7.02101C2.39148 7.99818 3.18648 8.79318 4.16365 8.79318C5.14081 8.79318 5.93581 7.99818 5.93581 7.02101C5.93581 6.04384 5.14081 5.2489 4.16365 5.2489ZM4.16365 7.6213C3.83265 7.6213 3.56335 7.35201 3.56335 7.02101C3.56335 6.69007 3.83265 6.42078 4.16365 6.42078C4.49464 6.42078 4.76394 6.69007 4.76394 7.02101C4.76394 7.35207 4.49464 7.6213 4.16365 7.6213Z" fill="#DBC2F3"/>
<path d="M8.93916 5.2489C7.96199 5.2489 7.16699 6.04384 7.16699 7.02101C7.16699 7.99818 7.96199 8.79318 8.93916 8.79318C9.91633 8.79318 10.7113 7.99818 10.7113 7.02101C10.7113 6.04384 9.91628 5.2489 8.93916 5.2489ZM8.93916 7.6213C8.60817 7.6213 8.33887 7.35201 8.33887 7.02101C8.33887 6.69007 8.60817 6.42078 8.93916 6.42078C9.27016 6.42078 9.53946 6.69007 9.53946 7.02101C9.5394 7.35207 9.2701 7.6213 8.93916 7.6213Z" fill="#DBC2F3"/>
<path d="M13.7146 5.2489C12.7374 5.2489 11.9424 6.04384 11.9424 7.02101C11.9424 7.99818 12.7374 8.79318 13.7146 8.79318C14.6917 8.79318 15.4867 7.99818 15.4867 7.02101C15.4867 6.04384 14.6917 5.2489 13.7146 5.2489ZM13.7146 7.6213C13.3836 7.6213 13.1143 7.35201 13.1143 7.02101C13.1143 6.69007 13.3836 6.42078 13.7146 6.42078C14.0456 6.42078 14.3149 6.69007 14.3149 7.02101C14.3149 7.35207 14.0456 7.6213 13.7146 7.6213Z" fill="#DBC2F3"/>
<path d="M14.8857 15.467C14.5621 15.5327 14.3628 15.8454 14.4258 16.1561C14.4833 16.4382 14.7274 16.6278 15 16.6278C15.3187 16.6278 15.5859 16.3685 15.5859 16.0419C15.5859 15.6669 15.2403 15.3956 14.8857 15.467Z" fill="#DBC2F3"/>
</g>
<defs>
<clipPath id="clip0">
<rect width="30" height="30" fill="white"/>
</clipPath>
</defs>
</svg>
